<svg xmlns="http://www.w3.org/2000/svg" viewBox="0 0 128 128">
  <path fill="#273043" d="M26 10h48l28 28v68c0 7-5 12-12 12H26c-7 0-12-5-12-12V22c0-7 5-12 12-12z"/>
  <path fill="#3776ab" d="M74 10v28h28z"/>
  <path fill="#ffd343" d="M62 53h13c7 0 12 5 12 12v9H62c-4 0-7 3-7 7v12H43c-7 0-12-5-12-12V73h24c4 0 7-3 7-7z"/>
  <path fill="#3776ab" d="M66 100H53c-7 0-12-5-12-12V79h24c4 0 7-3 7-7V60h13c7 0 12 5 12 12v9H73c-4 0-7 3-7 7z"/>
  <circle cx="72" cy="62" r="2.5" fill="#ffffff"/>
  <circle cx="56" cy="90" r="2.5" fill="#ffffff"/>
</svg>