<svg xmlns="http://www.w3.org/2000/svg" viewBox="0 0 128 128">
  <path fill="#2b2f42" d="M28 10h48l24 24v72c0 7-5 12-12 12H28c-7 0-12-5-12-12V22c0-7 5-12 12-12z"/>
  <path fill="#f9e2af" d="M76 10v24h24z"/>
  <path fill="#f9e2af" d="M48 58c-6 0-10 4-10 10v6c0 4-2 6-6 6v8c4 0 6 2 6 6v6c0 6 4 10 10 10h4v-8h-2c-3 0-4-1-4-4v-8c0-4-2-7-5-8 3-1 5-4 5-8v-8c0-3 1-4 4-4h2v-8zm32 0h-4v8h2c3 0 4 1 4 4v8c0 4 2 7 5 8-3 1-5 4-5 8v8c0 3-1 4-4 4h-2v8h4c6 0 10-4 10-10v-6c0-4 2-6 6-6v-8c-4 0-6-2-6-6v-6c0-6-4-10-10-10z"/>
</svg>